<svg xmlns="http://www.w3.org/2000/svg" width="854" height="292"><path fill="#da0914" d="M801 178h13v64q-68.479.027-136.957.042h-2.046l-67.762.013q-34.839.007-69.676.021a231020 231020 0 0 1-81.669.019h-2.007q-17.019.003-34.038.013-15.103.007-30.207.006-8.728-.002-17.456.005-7.977.007-15.953.002-2.898-.001-5.798.004-3.913.005-7.827-.002l-2.321.008c-5.169-.017-5.169-.017-6.283-1.131-.072-2.02-.084-4.042-.062-6.062l.027-3.348L334 229c3.595-1.198 6.86-1.136 10.6-1.123l2.38-.004q3.978-.002 7.958.007l5.737-.003q7.908-.002 15.817.007 8.518.005 17.036.002 14.768 0 29.535.008 21.351.011 42.702.012 34.638.004 69.276.019 33.655.014 67.309.02h2.095l20.828.004q87.364.016 174.727.051z"/><path fill="#fff" d="m35.522 34.876 3.442.001 3.954-.006 4.4.009q2.316 0 4.631-.003 6.393-.002 12.786.007 6.882.005 13.765.002 11.934 0 23.869.008 17.256.011 34.51.012 27.995.004 55.986.019a200534 200534 0 0 0 74.593.025q69.771.016 139.542.05v14H46v113H33c-1.653-1.653-1.126-3.584-1.127-5.859l-.009-3.187.007-3.526-.006-3.69q-.004-5.025 0-10.048c.003-3.497 0-6.995 0-10.492q-.004-8.813.005-17.624.006-10.201-.002-20.404-.007-8.744-.003-17.487.003-5.229-.001-10.458c-.004-3.884.001-7.769.007-11.653l-.007-3.526.009-3.187.001-2.787c.187-3.078.549-3.044 3.648-3.196M404 70h16v14l4.184-.222c5.184-.256 10.367-.415 15.555-.547a287 287 0 0 0 6.697-.287c19.527-1.04 19.527-1.04 26.208 4.164 10.039 9.3 10.039 9.3 10.523 14.787l.058 2.336.068 2.651q.107 6.028.167 12.055.04 3.173.123 6.343c.08 3.056.112 6.109.136 9.165l.1 2.839c-.02 6.355-1.526 9.526-5.983 14.056-2.55 2.306-5.164 4.497-7.836 6.66l-1 2h-51v-2l-3-1v-2h-2v-2h-2v-2h-2v-2l-3-1v-2h-2zm16 30v44h47v-44z"/><path fill="#dc0915" d="M159 70h16v14l4.076-.238c5.059-.274 10.117-.445 15.18-.586q3.268-.112 6.532-.308c10.142-.594 19.777-1.138 28.158 5.366 6.757 6.357 9.354 12.835 10.011 22.02.072 3.072.044 6.117-.056 9.19-.089 3.126-.021 6.224.062 9.35.039 9.672-.748 18.183-7.514 25.561-8.474 7.898-19.093 7.764-30.098 7.47-3.353-.075-6.68 0-10.03.09-9.4.063-19.297-.346-26.829-6.595-8.138-8.39-6.94-21.487-6.832-32.382.077-4.379.223-8.754.379-13.13.144-4.491.207-8.983.277-13.476.15-8.78.395-17.555.684-26.332m16 30v44h46v-44z"/><path fill="#fff" d="M690 84h15v60h23v-40h15v40h22l-.016-5.4q-.023-8.812-.036-17.626-.007-5.345-.023-10.691c-.013-4.093-.018-8.186-.023-12.28l-.015-3.894v-3.58l-.007-3.169C765 85 765 85 766 84a185 185 0 0 1 7.563-.062l2.154.013q2.64.02 5.283.049c.327 7.84.574 15.68.725 23.526.073 3.645.171 7.286.331 10.929 1.208 28.328 1.208 28.328-6.11 36.428-9.582 8.55-24.51 7.208-36.577 6.942-3.642-.08-7.27-.032-10.912.048-26.01.494-26.01.494-34.398-7.025-8.924-9.899-6.615-25.614-6.079-38.028.138-3.576.188-7.154.249-10.732.408-20.725.408-20.725 1.771-22.088"/><path fill="#de0713" d="M100.097 82.044c3.406.081 6.783.001 10.188-.095 10.254-.066 19.79.652 27.75 7.703 7.976 8.407 7.611 19.358 7.352 30.275a559 559 0 0 1-.357 8.38c-.155 3.58-.222 7.16-.298 10.742-.159 6.988-.422 13.968-.732 20.951h-16v-30H79v30H63a988 988 0 0 1-.777-23.083c-.078-3.577-.183-7.15-.355-10.723-1.211-25.955-1.211-25.955 5.267-34.613 9.006-9.493 20.551-9.886 32.962-9.537M79 100v14h49v-14z"/><path fill="#fff" d="m517.83 83.807 3.044-.049c4.597-.044 9.194-.085 13.792-.108q3.639-.025 7.277-.082c3.495-.055 6.988-.077 10.483-.091l3.283-.07c8.388.024 8.388.024 11.514 3C569 89 569 89 569 91l1.688.687c3.196 1.814 5.015 3.39 7.312 6.313.842 3.483.914 6.923.98 10.496l.08 3.107q.063 3.256.086 6.513c.041 3.284.183 6.554.329 9.835.239 9.874.055 18.877-6.924 26.475-8.665 8.004-19.881 7.685-31.055 7.4-3.497-.076-6.969-.001-10.465.088-10.187.056-19.774-.269-27.601-7.469-7.07-7.669-6.999-16.795-6.66-26.738q.174-3.291.355-6.582.105-3.373.191-6.746c.153-5.464.386-10.92.684-16.379h2l.813-1.813c1.186-2.185 2.283-3.6 4.187-5.187h2v-2h2l.875-1.938c1.935-3.547 4.207-3.2 7.954-3.255M514 100v44h49l-1-44zM597.379 83.902q2.091.01 4.183.035l2.155.014q2.64.02 5.283.049c1.308 2.615 1.12 4.531 1.114 7.46v3.457l-.016 3.747-.005 3.825q-.007 5.035-.024 10.071-.014 5.138-.02 10.276c-.01 6.721-.03 13.443-.049 20.164l48 1-.035-12.871q-.01-5.067-.017-10.134-.007-5.355-.023-10.712c-.013-4.093-.018-8.186-.023-12.28l-.015-3.894v-3.58l-.007-3.169C658 85 658 85 659 84a185 185 0 0 1 7.563-.062l2.154.013q2.64.02 5.283.049c.327 7.84.574 15.68.725 23.526.073 3.645.171 7.286.331 10.929 1.13 26.467 1.13 26.467-4.8 34.645-6.27 6.662-13.661 8.14-22.541 8.724-3.432.07-6.842.04-10.274-.054-3.507-.083-6.99-.02-10.498.056-18.198.03-18.198.03-25.261-6.55-2.428-2.632-4.556-5.395-6.682-8.276l-2-1q-.034-11.904-.052-23.808-.007-5.527-.023-11.055-.016-5.33-.02-10.659-.003-2.038-.01-4.075c-.008-1.897-.008-3.793-.009-5.69l-.006-3.277c.187-3.8.572-3.42 4.499-3.534"/><path fill="#dd0813" d="M296.375 83c2.67.076 5.338.127 8.008.18 19.255.458 19.255.458 20.617 1.82v15h-57v44l12.215-.035q4.809-.01 9.618-.017 5.082-.007 10.166-.023c3.884-.013 7.769-.018 11.653-.023l3.697-.015h3.397l3.008-.007C324 144 324 144 325 145c.073 2.53.092 5.033.063 7.563l-.014 2.154q-.02 2.64-.049 5.283c-7.45.327-14.898.574-22.353.725-3.463.073-6.922.17-10.383.331-25.16 1.132-25.16 1.132-33.256-4.934-7.073-6.751-8.725-14.74-8.985-24.258q.015-3.09.097-6.177c.068-3.126-.02-6.22-.122-9.345-.089-9.952.942-18.602 7.78-26.252 10.44-9.957 25.251-7.72 38.597-7.09"/><path fill="#df0713" d="M161 71h12l1 12 4.2-.115c5.198-.124 10.394-.16 15.594-.172q3.36-.025 6.717-.121c20.613-.565 20.613-.565 27.832 6.15 2.442 2.631 4.589 5.323 6.657 8.258-3 0-3 0-6-2l-3 2v-2h-2v5l-50 1c-.288 11.397-.288 11.397-.568 22.794-.563 22.1-.563 22.1-3.494 25.831L168 151c-1.937-.812-1.937-.812-4-2l-1-3h-2z"/><path fill="#fff" d="M358 59h13v108h-13c-.923-2.768-1.126-4.404-1.127-7.258l-.009-2.63.007-2.876-.006-3.036q-.004-4.977.002-9.954l-.003-6.9q-.002-7.234.006-14.469.006-9.29-.004-18.58-.005-7.125 0-14.25 0-3.426-.002-6.852-.003-4.78.007-9.56l-.007-2.883.009-2.621.001-2.285C357 61 357 61 358 59"/><path fill="#e10612" d="M224 144v4h3v8l-5 1v2q-10.2.075-20.398.11-3.471.016-6.943.04c-3.321.025-6.642.036-9.964.045l-3.15.032h-2.912l-2.57.014C174 159 174 159 172 157c.242-2.602.242-2.602.875-5.625l.617-3.04L174 146l3.976-.076q7.301-.142 14.603-.296 3.16-.066 6.32-.125 4.543-.088 9.085-.187l2.854-.05 2.669-.06 2.342-.048c2.8-.206 5.35-1.158 8.151-1.158"/><path fill="#bd141d" d="M159 70h16v14l-2-1V71h-12v75h2l4 4h2c5.383-8.074 3.334-22.12 3.563-31.625l.13-5.066q.159-6.154.307-12.309l2-1v44h46v-44h1v45c-3.191.798-5.304 1.123-8.493 1.114h-2.669l-2.854-.016-2.942-.005a4035 4035 0 0 1-9.292-.03l-6.305-.014q-7.722-.017-15.445-.049l.035 3.352c-.028 2.896-.3 4.918-1.035 7.648 1.599 1.599 3.305 1.165 5.52 1.205l2.912.06 3.166.051 3.224.063q5.12.097 10.24.184l6.924.13q8.507.162 17.014.307l-1-3h5c-2.359 3.83-2.359 3.83-5.165 4.575l-2.543.101-2.896.136-3.134.07-3.25.084q-3.415.07-6.832.105c-3.446.053-6.88.203-10.323.355-9.543.248-19.728.355-27.408-6.067-8.562-8.908-6.948-23.51-6.744-35 .087-3.518.209-7.034.334-10.551.144-4.491.207-8.983.277-13.476.15-8.78.395-17.555.684-26.332"/><path fill="#fff" d="M310 187c2.918 1.8 2.918 1.8 5 5 .594 3.959.471 7.821.313 11.813l-.069 3.255q-.088 3.968-.244 7.932h-2v2c-3.737 2.491-5.745 2.207-10.187 2.125l-3.856-.055L296 219a88 88 0 0 1-1-5c1-1 1-1 3.941-1.098l3.622.036 3.628.027L309 213v-3l-2.922.14-3.828.11-3.797.14C295 210 295 210 292.582 208.419c-3.205-4.898-2.29-10.82-1.582-16.418 3.37-7 12.16-6.346 19-5m-13 6v12h12v-12zM504.5 186.5l3.969-.031c4.109.618 5.015 1.324 7.531 4.531.518 2.594.518 2.594.531 5.5l.016 3.188L516.5 203c.015 1.093.03 2.186.047 3.313l-.016 3.187-.013 2.906c-.668 3.345-1.836 4.541-4.518 6.594-2.737.291-5.04.383-7.75.25l-2.113-.055A296 296 0 0 1 497 219v-6h14v-3l-3.176.105q-2.069.043-4.137.083l-2.091.076c-2.79.04-5.044.023-7.55-1.28-1.677-3.18-1.518-6.416-1.483-9.922l-.061-2.17c.003-3.324.271-5.532 2.057-8.365 3.401-2.128 5.953-2.058 9.941-2.027M498 193v12h13v-12zM695.5 186.375l3.906-.04C703 187 703 187 705.95 188.958c2.835 4.206 2.617 7.411 2.364 12.356l-.069 2.533A340 340 0 0 1 708 210h-6v-8h-13v8h-6a441 441 0 0 1-.312-8.687l-.127-2.475c-.086-4.24.062-6.28 2.49-9.881 3.714-2.465 6.014-2.626 10.449-2.582M689 193v3h13v-3zM435 183h5c1.81 3.62 1.27 7.827 1.313 11.813l.087 2.736c.04 4.073-.115 6.847-1.873 10.568-3.702 2.759-6.79 2.437-11.277 2.196l-2.402-.069c-1.95-.059-3.9-.148-5.848-.244v-2h-2c-1.501-3.003-1.266-6.083-1.312-9.375l-.088-2.04c-.042-3.253.207-5.281 1.966-8.046 3.35-2.119 5.755-1.935 9.684-1.789l3.828.11L435 187zm-12 10v12h12v-12zM332.813 186.688l2.677.068c2.17.059 4.34.148 6.51.244a88 88 0 0 1 1 5c-1 1-1 1-2.766 1.114l-2.27-.016-2.45-.01-2.577-.025-2.587-.014q-3.175-.02-6.35-.049v3h13l1 5c-1 1-1 1-3.941 1.098l-3.622-.036-3.628-.027L324 202v3h18l1 4c-2.304 2.304-7.72 1.28-10.812 1.313l-2.776.087c-6.652.063-6.652.063-10.014-1.986-1.878-3.243-1.964-5.615-1.96-9.351l-.067-3.653c.629-3.41.629-3.41 2.55-6.332 4.34-2.929 7.788-2.638 12.892-2.39M773.813 186.75l2.677.055c2.17.047 4.34.118 6.51.195v6h-18v3h13l1 5c-1 1-1 1-3.941 1.098l-3.621-.036-3.63-.027L765 202v3h18v5c-3.25.116-6.499.187-9.75.25l-2.79.102c-6.704.097-6.704.097-10.065-1.899-1.94-3.413-1.961-6.044-1.957-9.953l-.067-3.969c.629-3.531.629-3.531 2.55-5.984 4.357-2.19 8.093-1.983 12.891-1.797M112 183h5c.116 3.75.187 7.499.25 11.25l.102 3.223.039 3.105.063 2.857c-.595 3.36-1.776 4.512-4.454 6.565-2.83.401-5.183.561-8 .5-.712.015-1.423.03-2.156.047-3.326-.025-5.5-.323-8.309-2.145C91.397 203.492 92.29 197.58 93 192c1.688-3.375 1.688-3.375 5-5 4.368-.375 8.63-.288 13 0zm-13 10v12h12v-12zM377.45 186.805l2.568.02 2.67.05 2.705.027q3.304.036 6.607.098v6h-18v3h13c1 4 1 4 0 6h-13v3h18v5c-3.25.116-6.499.187-9.75.25l-2.79.102c-6.691.097-6.691.097-10.085-1.883-1.893-3.398-1.81-6.445-1.625-10.219l.055-2.113c.047-1.713.118-3.425.195-5.137h2v-2c3.153-2.102 3.861-2.243 7.45-2.195M278.25 186.75l2.836.055q3.458.07 6.914.195v6h-19v3h14v5c-1 1-1 1-3.941 1.098l-3.622-.036-3.628-.027L269 202v3h19v5h-21v-2l-3-1a440 440 0 0 1-.25-7.75l-.102-2.21c-.06-3.286.133-5.641 1.727-8.54 4.15-2.372 8.19-1.92 12.875-1.75M183.813 186.75l2.677.055c2.17.047 4.34.118 6.51.195v6h-18v3h13v6h-13v3h18v5c-3.25.116-6.499.187-9.75.25l-2.79.102c-6.704.097-6.704.097-10.065-1.899-1.94-3.413-1.961-6.044-1.958-9.953l-.066-3.969c.629-3.531.629-3.531 2.55-5.984 4.357-2.19 8.093-1.983 12.892-1.797M570.563 186.5l3.94-.031C578 187 578 187 580.45 188.422c2.4 3.99 1.976 7.771 1.801 12.328l-.055 2.691A404 404 0 0 1 582 210h-5v-8h-13v8h-6a425 425 0 0 1-.312-9.25l-.127-2.645c-.123-6.398-.123-6.398 2.486-9.683 3.7-1.781 6.416-1.955 10.515-1.922M564 193v3h13v-3z"/><path fill="#ca0b14" d="m77.438 186.5 3.933-.031c4.281.627 5.928 1.129 8.629 4.531.595 3.275.472 6.436.313 9.75l-.069 2.691Q90.156 206.722 90 210h-6l-1-8H71v8h-5a531 531 0 0 1-.25-9.25l-.102-2.645c-.097-6.36-.097-6.36 1.903-9.683 3.399-1.973 5.974-1.953 9.886-1.922M71 193v3h13v-3z"/><path fill="#fff" d="m210.75 186.75 2.691.055q3.281.07 6.559.195v6h-18v3l2.922-.14 3.828-.11 3.797-.14c3.453.39 3.453.39 5.89 2.171 2.186 3.104 1.848 5.52 1.563 9.219l-3 1v2h-20v-5h18v-3l-2.922.14-3.828.11-3.797.14C201 202 201 202 198.578 200.204c-2.299-3.21-2.128-5.354-1.578-9.203 3.422-5.302 8.072-4.468 13.75-4.25"/><path fill="#bd121a" d="M237 183h5l1 3 2.703.078 3.547.172 3.516.14c3.234.61 3.234.61 5.629 2.153 2.241 3.431 2.153 6.56 2.043 10.52l.021 2.181c-.034 2.837-.163 5.189-1.49 7.729-3.174 1.656-6.416 1.458-9.906 1.402l-2.17.035c-3.031-.017-5.406-.15-8.105-1.588C237 207 237 207 236.546 204.456l.063-2.999.04-3.252.101-3.393.055-3.427q.071-4.193.195-8.385m5 10v12h13v-12z"/><path fill="#fff" d="M634 187h5v18h13v-18h5c2.16 2.16 1.278 6.83 1.313 9.813l.087 2.486c.04 3.68-.005 6.027-1.888 9.244-3.667 2.127-6.844 2.042-11.012 1.957-.76.015-1.519.03-2.3.047-3.485-.025-5.663-.235-8.712-2.004-2.252-3.848-1.955-7.36-1.8-11.73l.029-2.522c.115-6.123.115-6.123 1.283-7.291M477 186.5c.712-.015 1.423-.03 2.156-.047 3.224.024 5.519.36 8.328 1.969 2.35 3.997 1.94 7.787 1.766 12.328l-.055 2.691A404 404 0 0 1 489 210h-5v-17h-13v17h-6a531 531 0 0 1-.25-9.25l-.102-2.645c-.096-6.342-.096-6.342 1.868-9.683 3.457-1.979 6.61-2.006 10.484-1.922M621.813 186.75l2.388.055c1.934.047 3.866.118 5.799.195v6h-16v12h16v5c-2.918.108-5.831.187-8.75.25l-2.5.102c-3.736.06-6.053.072-9.293-1.899-2.025-3.409-2.023-6.007-2.02-9.953l-.066-3.969C608 191 608 191 609.984 188.547c4.073-2.089 7.329-1.993 11.828-1.797M121 187l5 1 1 17h11l1-18h5c1.245 3.735 1.017 7.069.813 10.938-.02.716-.038 1.432-.057 2.17-.174 3.292-.55 5.57-2.338 8.365-3.386 2.138-5.94 2.058-9.918 2.027l-3.969.031C125 210 125 210 122.582 208.543c-2.359-3.791-2.295-7.342-2.394-11.73l-.116-2.522c-.08-2.096-.083-4.194-.072-6.291z"/><path fill="#c80e18" d="m545.688 186.688 2.376.029c5.767.114 5.767.114 6.936 1.283v5h-17v12h17v5c-3.104.087-6.208.14-9.312.188l-2.67.076-2.569.029-2.364.048c-2.657-.434-3.51-1.184-5.085-3.341a60 60 0 0 1-.437-7.937l-.061-2.17c.003-3.283.289-5.543 1.982-8.377 3.71-2.235 6.96-1.988 11.203-1.828"/><path fill="#b9171f" d="M74 88c0 3.38-.875 5.835-2 9h-4l-1 2h-2v60h12l-.035-5.766-.028-7.484-.025-3.8-.01-3.653-.016-3.364C77 132 77 132 78 128l50 1v1H79v30H63c-.25-7.763-.451-15.524-.57-23.29a570 570 0 0 0-.26-10.818c-.12-3.489-.185-6.975-.214-10.465-.03-1.961-.115-3.921-.202-5.88-.005-6.621.707-10.66 5.257-15.458C69.257 91.939 71.574 89.946 74 88"/><path fill="#fff" d="M738 187h18v6l-6 1v11h6v5h-18v-5h6v-12h-6zM148 187q4.219-.04 8.438-.062l2.431-.026c2.044-.009 4.088.036 6.131.088 1 1 1 1 1.063 3.563L166 193h-6v12h6v5h-18v-5h6v-12h-6zM444 187q4.219-.04 8.438-.062l2.431-.026c2.044-.009 4.088.036 6.131.088 1 1 1 1 1.063 3.563L462 193h-7v12h7v5h-18v-5h6v-12h-6zM396 187h17l1 5-1 1h-6v12h7v5h-18v-5h6v-12h-6zM711 187h23l1 5-1 1h-8v17h-6v-17h-9zM661 187a100 100 0 0 1 5 0c1 1 1 1 1.098 4.816a763 763 0 0 1-.035 4.746l-.014 2.444q-.02 2.997-.049 5.994h13v5c-2.418.108-4.83.187-7.25.25l-2.066.102c-3.191.062-5.363-.17-8.153-1.758-2.365-4.007-1.956-7.788-1.781-12.344l.055-2.691q.07-3.281.195-6.559M586 187h5v18h14v5c-2.605.08-5.207.14-7.812.188l-2.237.076c-5.477.074-5.477.074-7.67-1.49-1.656-2.294-1.628-3.632-1.574-6.442l.03-2.705c.024-.929.05-1.858.076-2.815l.04-2.85q.054-3.48.147-6.962M346 187h5v18h14v5h-16v-2l-3-1z"/><path fill="#c80d14" d="m269.645 83.399 3.042.033 3.457.002 3.715.078 3.817.021c3.341.023 6.68.068 10.022.124 3.412.05 6.824.074 10.236.099Q313.967 83.84 324 84v1c-1.645.09-1.645.09-3.324.184l-4.364.253-2.185.12-2.139.127-1.952.11c-2.084.167-2.084.167-4.271.724-3.672.64-7.277.566-10.988.51l-4.818-.038q-3.776-.037-7.551-.086c-2.44-.03-4.879-.048-7.318-.064l-2.276-.04c-3.77-.019-6.618.083-9.814 2.2 3.218-4.822 3.218-4.822 6.645-5.601"/><path fill="#db0712" d="m239 185 4 1-1 2 2.012-.07c8.981-.184 8.981-.184 12.988 2.07 2 2 2 2 2.23 4.207-.143 8.718-.143 8.718-1.23 12.793h-2v-16l-14 1-.375 5.938c-.21 3.34-.21 3.34-.625 6.062l-2 1z"/><path fill="#cb0d14" d="M80.283 83.499h2.707l3.074-.03 3.315.035 3.403-.005q3.563.004 7.124.034c3.646.03 7.29.021 10.936.008q3.456.01 6.912.025l3.32-.008 3.065.038 2.705.016L129 84l2 3q-7.257.037-14.514.055-2.465.008-4.929.02-3.56.018-7.12.023l-2.194.015c-4.833 0-9.455-.449-14.243-1.113a86 86 0 0 0-4.75-.188l-2.172-.042C78.69 86.034 77.074 86.818 75 88c2.325-3.852 2.325-3.852 5.283-4.501"/><path fill="#e00510" d="M85 192h4v17h-4l-1-9H69l-1-6 2 2c3.357.244 3.357.244 7.125.125l3.883-.055L84 196z"/><path fill="#ab141c" d="m77.375 186.563 3.96-.06c4.32.586 5.951 1.067 8.665 4.497.594 3.275.472 6.436.313 9.75l-.069 2.691Q90.156 206.722 90 210h-6v-8h1v7h4v-17c-3.278.752-3.278.752-5 4v-3H72v-1h12v-3l-2.957.219-3.856.281-3.832.281A98 98 0 0 1 67 190c2.735-3.876 5.908-3.433 10.375-3.437"/><path fill="#b91a21" d="m262 89 1 2c-.937 2.125-.937 2.125-2 4h-3l-2 5h-3l.573 25.548.275 12.251.06 2.73.054 2.402c.031 1.69.038 3.38.038 5.069-2.414-2.414-2.28-3.072-2.386-6.383l-.097-2.753c-.09-4.182-.171-8.363-.217-12.546a332 332 0 0 0-.164-6.593c-.669-19.268-.669-19.268 3.143-24.455 2.453-2.455 4.78-4.441 7.721-6.27"/><path fill="#a91e26" d="m545.688 186.688 2.376.029c5.767.114 5.767.114 6.936 1.283v5h-17v-1h15v-3q-3.938.172-7.875.375c-.746.03-1.493.062-2.262.094-4.398.087-4.398.087-7.863 2.531-.306 2.57-.51 5.048-.625 7.625l-.117 2.14c-.094 1.745-.177 3.49-.258 5.235h-1a440 440 0 0 1-.25-7.75l-.102-2.21c-.06-3.343.112-5.633 1.825-8.536 3.72-2.213 6.972-1.976 11.215-1.816"/><path fill="#b1151d" d="M237 183h5v2h-3l1 19 1-10h1c.054 1.75.093 3.5.125 5.25l.07 2.953c-.196 2.817-.75 4.406-2.195 6.797l-3-2c-.34-2.43-.34-2.43-.293-5.445l.03-3.262c.024-1.128.05-2.256.076-3.418l.04-3.441q.054-4.218.147-8.434"/><path fill="#bb181f" d="M167 153c2.217.994 3.806 1.787 5.453 3.598 2.114 1.916 3.47 1.797 6.294 1.834l2.911.06 3.135.02 3.216.054c3.393.054 6.785.088 10.179.121q3.447.05 6.896.104 8.458.126 16.916.209l-1-3h5c-1.198 1.965-1.198 1.965-3 4-2.219.528-2.219.528-4.835.565l-2.974.068-3.21.004-3.308.033q-3.465.023-6.932.016c-3.53.001-7.057.061-10.587.125q-3.367.012-6.736.013l-3.192.072c-7.207-.09-7.207-.09-10.266-2.51-1.494-1.73-2.776-3.434-3.96-5.386"/><path fill="#fff" d="M223 196h10a88 88 0 0 1 1 5c-1 1-1 1-3.031 1.133l-2.469-.008-2.469.008C224 202 224 202 223 201z"/><path fill="#da0c17" d="M85 192h4v17h-4l-1-8 2-1c.652-2.025.652-2.025 1-4h-2z"/><path fill="#fff" d="M520 196h10v5c-1 1-1 1-3.066 1.098l-2.496-.036-2.504-.027L520 202z"/><path fill="#d90711" d="M535 204h3v2h15v3q-3.937.08-7.875.125l-2.262.05c-1.955.018-3.91-.072-5.863-.175l-2-2z"/><path fill="#fff" d="M154 179h6c.043 1.666.04 3.334 0 5-1 1-1 1-3.562 1.063L154 185zM744 179h5a88 88 0 0 1 1 5c-1 1-1 1-3.562 1.063L744 185zM558 191h2q.57 2.988 1 6l-1 1c-.072 2.296.004 4.575.063 6.871C560 207 560 207 559 209l4 1h-5z"/><path fill="#c70f1d" d="m262 89 1 2c-.937 2.125-.937 2.125-2 4h-3l-2 5h-3c1.408-3.215 3.103-5.322 5.625-7.75l1.914-1.86z"/><path fill="#fff" d="M450 179h5v6h-5zM402 179h5v6h-5z"/><path fill="#c1121e" d="M74 88c0 3.38-.875 5.835-2 9l-7 1q1.404-1.659 2.813-3.312l1.582-1.864A88 88 0 0 1 74 88"/><path fill="#cd0f18" d="M261 146c2 2 2 2 2 5h-2l1 4-7-6h5z"/><path fill="#c21219" d="m233 147 2 1-7 7-1-4c1.842-2.486 3.005-3.002 6-4"/><path fill="#db070c" d="M67 202c2 1.813 2 1.813 4 4v3h-4z"/><path fill="#c41422" d="M227 90q1.724 1.432 3.438 2.875l1.933 1.617C234 96 234 96 235 98l-10-5 2-1z"/></svg>